<?xml version="1.0" encoding="utf-8" standalone="no"?>
<!DOCTYPE svg PUBLIC "-//W3C//DTD SVG 1.1//EN"
  "http://www.w3.org/Graphics/SVG/1.1/DTD/svg11.dtd">
<svg xmlns:xlink="http://www.w3.org/1999/xlink" width="460.8pt" height="345.6pt" viewBox="0 0 460.8 345.6" xmlns="http://www.w3.org/2000/svg" version="1.1">
 <metadata>
  <rdf:RDF xmlns:dc="http://purl.org/dc/elements/1.1/" xmlns:cc="http://creativecommons.org/ns#" xmlns:rdf="http://www.w3.org/1999/02/22-rdf-syntax-ns#">
   <cc:Work>
    <dc:type rdf:resource="http://purl.org/dc/dcmitype/StillImage"/>
    <dc:date>2023-11-24T21:39:37.663001</dc:date>
    <dc:format>image/svg+xml</dc:format>
    <dc:creator>
     <cc:Agent>
      <dc:title>Matplotlib v3.8.0, https://matplotlib.org/</dc:title>
     </cc:Agent>
    </dc:creator>
   </cc:Work>
  </rdf:RDF>
 </metadata>
 <defs>
  <style type="text/css">*{stroke-linejoin: round; stroke-linecap: butt}</style>
 </defs>
 <g id="figure_1">
  <g id="patch_1">
   <path d="M 0 345.6 
L 460.8 345.6 
L 460.8 0 
L 0 0 
z
" style="fill: #ffffff"/>
  </g>
  <g id="axes_1">
   <g id="patch_2">
    <path d="M 57.6 307.584 
L 414.72 307.584 
L 414.72 41.472 
L 57.6 41.472 
z
" style="fill: #ffffff"/>
   </g>
   <g id="matplotlib.axis_1">
    <g id="xtick_1">
     <g id="line2d_1">
      <defs>
       <path id="m22a36fb1b7" d="M 0 0 
L 0 3.5 
" style="stroke: #000000; stroke-width: 0.8"/>
      </defs>
      <g>
       <use xlink:href="#m22a36fb1b7" x="106.516071" y="307.584" style="stroke: #000000; stroke-width: 0.8"/>
      </g>
     </g>
     <g id="text_1">
      <!-- 2021-07 -->
      <g transform="translate(85.624665 322.182437) scale(0.1 -0.1)">
       <defs>
        <path id="DejaVuSans-32" d="M 1228 531 
L 3431 531 
L 3431 0 
L 469 0 
L 469 531 
Q 828 903 1448 1529 
Q 2069 2156 2228 2338 
Q 2531 2678 2651 2914 
Q 2772 3150 2772 3378 
Q 2772 3750 2511 3984 
Q 2250 4219 1831 4219 
Q 1534 4219 1204 4116 
Q 875 4013 500 3803 
L 500 4441 
Q 881 4594 1212 4672 
Q 1544 4750 1819 4750 
Q 2544 4750 2975 4387 
Q 3406 4025 3406 3419 
Q 3406 3131 3298 2873 
Q 3191 2616 2906 2266 
Q 2828 2175 2409 1742 
Q 1991 1309 1228 531 
z
" transform="scale(0.015625)"/>
        <path id="DejaVuSans-30" d="M 2034 4250 
Q 1547 4250 1301 3770 
Q 1056 3291 1056 2328 
Q 1056 1369 1301 889 
Q 1547 409 2034 409 
Q 2525 409 2770 889 
Q 3016 1369 3016 2328 
Q 3016 3291 2770 3770 
Q 2525 4250 2034 4250 
z
M 2034 4750 
Q 2819 4750 3233 4129 
Q 3647 3509 3647 2328 
Q 3647 1150 3233 529 
Q 2819 -91 2034 -91 
Q 1250 -91 836 529 
Q 422 1150 422 2328 
Q 422 3509 836 4129 
Q 1250 4750 2034 4750 
z
" transform="scale(0.015625)"/>
        <path id="DejaVuSans-31" d="M 794 531 
L 1825 531 
L 1825 4091 
L 703 3866 
L 703 4441 
L 1819 4666 
L 2450 4666 
L 2450 531 
L 3481 531 
L 3481 0 
L 794 0 
L 794 531 
z
" transform="scale(0.015625)"/>
        <path id="DejaVuSans-2d" d="M 313 2009 
L 1997 2009 
L 1997 1497 
L 313 1497 
L 313 2009 
z
" transform="scale(0.015625)"/>
        <path id="DejaVuSans-37" d="M 525 4666 
L 3525 4666 
L 3525 4397 
L 1831 0 
L 1172 0 
L 2766 4134 
L 525 4134 
L 525 4666 
z
" transform="scale(0.015625)"/>
       </defs>
       <use xlink:href="#DejaVuSans-32"/>
       <use xlink:href="#DejaVuSans-30" x="63.623047"/>
       <use xlink:href="#DejaVuSans-32" x="127.246094"/>
       <use xlink:href="#DejaVuSans-31" x="190.869141"/>
       <use xlink:href="#DejaVuSans-2d" x="254.492188"/>
       <use xlink:href="#DejaVuSans-30" x="290.576172"/>
       <use xlink:href="#DejaVuSans-37" x="354.199219"/>
      </g>
     </g>
    </g>
    <g id="xtick_2">
     <g id="line2d_2">
      <g>
       <use xlink:href="#m22a36fb1b7" x="174.061647" y="307.584" style="stroke: #000000; stroke-width: 0.8"/>
      </g>
     </g>
     <g id="text_2">
      <!-- 2021-08 -->
      <g transform="translate(153.170241 322.182437) scale(0.1 -0.1)">
       <defs>
        <path id="DejaVuSans-38" d="M 2034 2216 
Q 1584 2216 1326 1975 
Q 1069 1734 1069 1313 
Q 1069 891 1326 650 
Q 1584 409 2034 409 
Q 2484 409 2743 651 
Q 3003 894 3003 1313 
Q 3003 1734 2745 1975 
Q 2488 2216 2034 2216 
z
M 1403 2484 
Q 997 2584 770 2862 
Q 544 3141 544 3541 
Q 544 4100 942 4425 
Q 1341 4750 2034 4750 
Q 2731 4750 3128 4425 
Q 3525 4100 3525 3541 
Q 3525 3141 3298 2862 
Q 3072 2584 2669 2484 
Q 3125 2378 3379 2068 
Q 3634 1759 3634 1313 
Q 3634 634 3220 271 
Q 2806 -91 2034 -91 
Q 1263 -91 848 271 
Q 434 634 434 1313 
Q 434 1759 690 2068 
Q 947 2378 1403 2484 
z
M 1172 3481 
Q 1172 3119 1398 2916 
Q 1625 2713 2034 2713 
Q 2441 2713 2670 2916 
Q 2900 3119 2900 3481 
Q 2900 3844 2670 4047 
Q 2441 4250 2034 4250 
Q 1625 4250 1398 4047 
Q 1172 3844 1172 3481 
z
" transform="scale(0.015625)"/>
       </defs>
       <use xlink:href="#DejaVuSans-32"/>
       <use xlink:href="#DejaVuSans-30" x="63.623047"/>
       <use xlink:href="#DejaVuSans-32" x="127.246094"/>
       <use xlink:href="#DejaVuSans-31" x="190.869141"/>
       <use xlink:href="#DejaVuSans-2d" x="254.492188"/>
       <use xlink:href="#DejaVuSans-30" x="290.576172"/>
       <use xlink:href="#DejaVuSans-38" x="354.199219"/>
      </g>
     </g>
    </g>
    <g id="xtick_3">
     <g id="line2d_3">
      <g>
       <use xlink:href="#m22a36fb1b7" x="241.607224" y="307.584" style="stroke: #000000; stroke-width: 0.8"/>
      </g>
     </g>
     <g id="text_3">
      <!-- 2021-09 -->
      <g transform="translate(220.715818 322.182437) scale(0.1 -0.1)">
       <defs>
        <path id="DejaVuSans-39" d="M 703 97 
L 703 672 
Q 941 559 1184 500 
Q 1428 441 1663 441 
Q 2288 441 2617 861 
Q 2947 1281 2994 2138 
Q 2813 1869 2534 1725 
Q 2256 1581 1919 1581 
Q 1219 1581 811 2004 
Q 403 2428 403 3163 
Q 403 3881 828 4315 
Q 1253 4750 1959 4750 
Q 2769 4750 3195 4129 
Q 3622 3509 3622 2328 
Q 3622 1225 3098 567 
Q 2575 -91 1691 -91 
Q 1453 -91 1209 -44 
Q 966 3 703 97 
z
M 1959 2075 
Q 2384 2075 2632 2365 
Q 2881 2656 2881 3163 
Q 2881 3666 2632 3958 
Q 2384 4250 1959 4250 
Q 1534 4250 1286 3958 
Q 1038 3666 1038 3163 
Q 1038 2656 1286 2365 
Q 1534 2075 1959 2075 
z
" transform="scale(0.015625)"/>
       </defs>
       <use xlink:href="#DejaVuSans-32"/>
       <use xlink:href="#DejaVuSans-30" x="63.623047"/>
       <use xlink:href="#DejaVuSans-32" x="127.246094"/>
       <use xlink:href="#DejaVuSans-31" x="190.869141"/>
       <use xlink:href="#DejaVuSans-2d" x="254.492188"/>
       <use xlink:href="#DejaVuSans-30" x="290.576172"/>
       <use xlink:href="#DejaVuSans-39" x="354.199219"/>
      </g>
     </g>
    </g>
    <g id="xtick_4">
     <g id="line2d_4">
      <g>
       <use xlink:href="#m22a36fb1b7" x="306.973911" y="307.584" style="stroke: #000000; stroke-width: 0.8"/>
      </g>
     </g>
     <g id="text_4">
      <!-- 2021-10 -->
      <g transform="translate(286.082505 322.182437) scale(0.1 -0.1)">
       <use xlink:href="#DejaVuSans-32"/>
       <use xlink:href="#DejaVuSans-30" x="63.623047"/>
       <use xlink:href="#DejaVuSans-32" x="127.246094"/>
       <use xlink:href="#DejaVuSans-31" x="190.869141"/>
       <use xlink:href="#DejaVuSans-2d" x="254.492188"/>
       <use xlink:href="#DejaVuSans-31" x="290.576172"/>
       <use xlink:href="#DejaVuSans-30" x="354.199219"/>
      </g>
     </g>
    </g>
    <g id="xtick_5">
     <g id="line2d_5">
      <g>
       <use xlink:href="#m22a36fb1b7" x="374.519487" y="307.584" style="stroke: #000000; stroke-width: 0.8"/>
      </g>
     </g>
     <g id="text_5">
      <!-- 2021-11 -->
      <g transform="translate(353.628081 322.182437) scale(0.1 -0.1)">
       <use xlink:href="#DejaVuSans-32"/>
       <use xlink:href="#DejaVuSans-30" x="63.623047"/>
       <use xlink:href="#DejaVuSans-32" x="127.246094"/>
       <use xlink:href="#DejaVuSans-31" x="190.869141"/>
       <use xlink:href="#DejaVuSans-2d" x="254.492188"/>
       <use xlink:href="#DejaVuSans-31" x="290.576172"/>
       <use xlink:href="#DejaVuSans-31" x="354.199219"/>
      </g>
     </g>
    </g>
   </g>
   <g id="matplotlib.axis_2">
    <g id="ytick_1">
     <g id="line2d_6">
      <defs>
       <path id="m5637c408d1" d="M 0 0 
L -3.5 0 
" style="stroke: #000000; stroke-width: 0.8"/>
      </defs>
      <g>
       <use xlink:href="#m5637c408d1" x="57.6" y="280.248207" style="stroke: #000000; stroke-width: 0.8"/>
      </g>
     </g>
     <g id="text_6">
      <!-- 5000 -->
      <g transform="translate(25.15 284.047425) scale(0.1 -0.1)">
       <defs>
        <path id="DejaVuSans-35" d="M 691 4666 
L 3169 4666 
L 3169 4134 
L 1269 4134 
L 1269 2991 
Q 1406 3038 1543 3061 
Q 1681 3084 1819 3084 
Q 2600 3084 3056 2656 
Q 3513 2228 3513 1497 
Q 3513 744 3044 326 
Q 2575 -91 1722 -91 
Q 1428 -91 1123 -41 
Q 819 9 494 109 
L 494 744 
Q 775 591 1075 516 
Q 1375 441 1709 441 
Q 2250 441 2565 725 
Q 2881 1009 2881 1497 
Q 2881 1984 2565 2268 
Q 2250 2553 1709 2553 
Q 1456 2553 1204 2497 
Q 953 2441 691 2322 
L 691 4666 
z
" transform="scale(0.015625)"/>
       </defs>
       <use xlink:href="#DejaVuSans-35"/>
       <use xlink:href="#DejaVuSans-30" x="63.623047"/>
       <use xlink:href="#DejaVuSans-30" x="127.246094"/>
       <use xlink:href="#DejaVuSans-30" x="190.869141"/>
      </g>
     </g>
    </g>
    <g id="ytick_2">
     <g id="line2d_7">
      <g>
       <use xlink:href="#m5637c408d1" x="57.6" y="230.470987" style="stroke: #000000; stroke-width: 0.8"/>
      </g>
     </g>
     <g id="text_7">
      <!-- 10000 -->
      <g transform="translate(18.7875 234.270206) scale(0.1 -0.1)">
       <use xlink:href="#DejaVuSans-31"/>
       <use xlink:href="#DejaVuSans-30" x="63.623047"/>
       <use xlink:href="#DejaVuSans-30" x="127.246094"/>
       <use xlink:href="#DejaVuSans-30" x="190.869141"/>
       <use xlink:href="#DejaVuSans-30" x="254.492188"/>
      </g>
     </g>
    </g>
    <g id="ytick_3">
     <g id="line2d_8">
      <g>
       <use xlink:href="#m5637c408d1" x="57.6" y="180.693768" style="stroke: #000000; stroke-width: 0.8"/>
      </g>
     </g>
     <g id="text_8">
      <!-- 15000 -->
      <g transform="translate(18.7875 184.492987) scale(0.1 -0.1)">
       <use xlink:href="#DejaVuSans-31"/>
       <use xlink:href="#DejaVuSans-35" x="63.623047"/>
       <use xlink:href="#DejaVuSans-30" x="127.246094"/>
       <use xlink:href="#DejaVuSans-30" x="190.869141"/>
       <use xlink:href="#DejaVuSans-30" x="254.492188"/>
      </g>
     </g>
    </g>
    <g id="ytick_4">
     <g id="line2d_9">
      <g>
       <use xlink:href="#m5637c408d1" x="57.6" y="130.916549" style="stroke: #000000; stroke-width: 0.8"/>
      </g>
     </g>
     <g id="text_9">
      <!-- 20000 -->
      <g transform="translate(18.7875 134.715768) scale(0.1 -0.1)">
       <use xlink:href="#DejaVuSans-32"/>
       <use xlink:href="#DejaVuSans-30" x="63.623047"/>
       <use xlink:href="#DejaVuSans-30" x="127.246094"/>
       <use xlink:href="#DejaVuSans-30" x="190.869141"/>
       <use xlink:href="#DejaVuSans-30" x="254.492188"/>
      </g>
     </g>
    </g>
    <g id="ytick_5">
     <g id="line2d_10">
      <g>
       <use xlink:href="#m5637c408d1" x="57.6" y="81.13933" style="stroke: #000000; stroke-width: 0.8"/>
      </g>
     </g>
     <g id="text_10">
      <!-- 25000 -->
      <g transform="translate(18.7875 84.938549) scale(0.1 -0.1)">
       <use xlink:href="#DejaVuSans-32"/>
       <use xlink:href="#DejaVuSans-35" x="63.623047"/>
       <use xlink:href="#DejaVuSans-30" x="127.246094"/>
       <use xlink:href="#DejaVuSans-30" x="190.869141"/>
       <use xlink:href="#DejaVuSans-30" x="254.492188"/>
      </g>
     </g>
    </g>
   </g>
   <g id="line2d_11">
    <path d="M 73.832727 187.924921 
L 76.011617 219.790645 
L 78.190506 216.24736 
L 80.369396 248.420653 
L 82.548286 251.234843 
L 84.727175 213.508191 
L 86.906065 188.226982 
L 89.084954 263.751017 
L 91.263844 198.077786 
L 93.442733 232.624481 
L 95.621623 150.048495 
L 97.800513 150.556791 
L 99.979402 179.590705 
L 102.158292 140.313706 
L 104.337181 156.834587 
L 106.516071 281.070917 
L 108.69496 142.802638 
L 110.87385 157.664054 
L 113.052739 144.412433 
L 115.231629 143.078262 
L 117.410519 159.067771 
L 119.589408 202.526341 
L 121.768298 146.42706 
L 123.947187 166.849159 
L 126.126077 170.954046 
L 128.304966 187.492582 
L 130.483856 138.654774 
L 132.662746 148.963493 
L 134.841635 177.310197 
L 137.020525 149.363489 
L 139.199414 153.767848 
L 141.378304 141.574634 
L 143.557193 155.223334 
L 145.736083 202.842 
L 147.914973 139.13939 
L 150.093862 124.582754 
L 152.272752 171.473321 
L 154.451641 170.926269 
L 156.630531 120.511546 
L 158.80942 150.818193 
L 160.98831 138.74039 
L 163.1672 111.308663 
L 165.346089 116.504551 
L 167.524979 206.259775 
L 169.703868 132.039239 
L 171.882758 127.695537 
L 174.061647 115.781146 
L 176.240537 255.882898 
L 178.419426 116.37449 
L 180.598316 143.657143 
L 182.777206 166.40158 
L 184.956095 201.394506 
L 187.134985 204.051843 
L 189.313874 194.786924 
L 191.492764 192.471212 
L 193.671653 189.658952 
L 195.850543 145.047536 
L 198.029433 120.312776 
L 200.208322 221.830122 
L 202.387212 254.483474 
L 204.566101 207.049854 
L 206.744991 268.01289 
L 208.92388 247.206299 
L 211.10277 136.990346 
L 213.28166 190.293497 
L 215.460549 175.223865 
L 217.639439 92.778852 
L 219.818328 92.51197 
L 221.997218 102.941561 
L 224.176107 115.471425 
L 226.354997 115.688702 
L 228.533887 119.347826 
L 230.712776 136.023692 
L 232.891666 146.280786 
L 235.070555 169.948532 
L 237.249445 174.483639 
L 239.428334 236.26182 
L 241.607224 178.323697 
L 243.786113 188.717038 
L 245.965003 225.019386 
L 248.143893 119.750275 
L 250.322782 110.991973 
L 252.501672 115.944557 
L 254.680561 112.523867 
L 256.859451 235.642592 
L 259.03834 206.074177 
L 261.21723 131.777944 
L 263.39612 209.903041 
L 265.575009 235.886002 
L 267.753899 151.636068 
L 269.932788 110.137796 
L 272.111678 115.883082 
L 274.290567 132.377013 
L 276.469457 263.756018 
L 278.648347 263.456608 
L 280.827236 126.288263 
L 283.006126 100.047041 
L 285.185015 202.101623 
L 287.363905 136.525446 
L 289.542794 223.853355 
L 291.721684 71.961158 
L 293.900574 135.171506 
L 296.079463 119.629565 
L 298.258353 89.321709 
L 300.437242 132.392444 
L 302.616132 156.146631 
L 304.795021 119.22702 
L 306.973911 121.405836 
L 309.1528 192.064503 
L 311.33169 103.637366 
L 313.51058 115.890927 
L 315.689469 145.476528 
L 320.047248 249.212061 
L 322.226138 158.236029 
L 324.405027 267.693645 
L 326.583917 281.044891 
L 328.762807 291.371424 
L 330.941696 295.488 
L 333.120586 274.092756 
L 335.299475 169.866725 
L 337.478365 132.991173 
L 339.657254 129.170455 
L 341.836144 277.905492 
L 346.193923 287.44201 
L 348.372813 270.077227 
L 350.551702 285.098001 
L 352.730592 250.380246 
L 354.909481 146.328542 
L 357.088371 155.930356 
L 359.267261 237.73819 
L 361.44615 230.913617 
L 363.62504 213.614773 
L 365.803929 174.155214 
L 367.982819 152.523573 
L 370.161708 226.906758 
L 372.340598 228.119331 
L 374.519487 236.541998 
L 376.698377 289.563847 
L 378.877267 104.14449 
L 381.056156 88.190137 
L 383.235046 103.815297 
L 385.413935 53.568 
L 387.592825 81.224585 
L 389.771714 138.026184 
L 391.950604 215.507571 
L 394.129494 240.961785 
L 396.308383 259.310913 
L 398.487273 288.55254 
L 398.487273 288.55254 
" clip-path="url(#p02408b16fd)" style="fill: none; stroke: #0000ff; stroke-width: 1.5; stroke-linecap: square"/>
   </g>
   <g id="line2d_12">
    <path d="M 73.832727 191.577742 
L 76.011617 192.346557 
L 78.190506 204.768501 
L 80.369396 204.352492 
L 82.548286 215.101785 
L 84.727175 214.692484 
L 86.906065 195.812131 
L 89.084954 186.834518 
L 91.263844 217.135223 
L 93.442733 193.523001 
L 95.621623 206.981478 
L 97.800513 162.277656 
L 99.979402 157.238276 
L 102.158292 186.511043 
L 104.337181 157.253851 
L 106.516071 167.802023 
L 108.69496 222.933307 
L 110.87385 161.734287 
L 113.052739 168.104536 
L 115.231629 154.683713 
L 117.410519 160.029748 
L 119.589408 181.950449 
L 121.768298 200.229548 
L 123.947187 167.809246 
L 126.126077 179.281884 
L 128.304966 181.452375 
L 130.483856 189.966409 
L 132.662746 157.475185 
L 134.841635 164.156279 
L 137.020525 184.36548 
L 139.199414 165.522897 
L 141.378304 160.226426 
L 143.557193 150.163922 
L 145.736083 171.840909 
L 147.914973 191.114289 
L 150.093862 158.299289 
L 152.272752 157.976807 
L 154.451641 185.06203 
L 156.630531 184.608474 
L 158.80942 151.114764 
L 160.98831 170.801888 
L 163.1672 163.170865 
L 165.346089 140.94347 
L 167.524979 137.76257 
L 169.703868 194.045331 
L 171.882758 162.879357 
L 174.061647 163.141154 
L 176.240537 149.079226 
L 178.419426 216.976033 
L 180.598316 145.348404 
L 184.956095 172.910711 
L 187.134985 196.75851 
L 191.492764 194.308314 
L 193.671653 191.73736 
L 195.850543 190.353018 
L 198.029433 159.266173 
L 200.208322 142.130735 
L 202.387212 204.801138 
L 204.566101 216.413988 
L 206.744991 190.083959 
L 208.92388 214.608077 
L 211.10277 211.59986 
L 213.28166 157.411971 
L 215.460549 182.740118 
L 217.639439 178.06699 
L 219.818328 118.223125 
L 221.997218 119.074743 
L 224.176107 126.240816 
L 226.354997 131.190888 
L 228.533887 124.821893 
L 230.712776 127.491449 
L 232.891666 139.652801 
L 235.070555 150.901111 
L 237.249445 173.254845 
L 239.428334 174.320359 
L 241.607224 207.571163 
L 243.786113 180.714126 
L 245.965003 189.728091 
L 248.143893 203.745346 
L 250.322782 147.954066 
L 252.501672 128.188116 
L 254.680561 132.488732 
L 256.859451 134.834269 
L 259.03834 204.631059 
L 261.21723 183.794977 
L 263.39612 126.948566 
L 265.575009 187.948808 
L 267.753899 206.905859 
L 269.932788 154.872439 
L 272.111678 124.298007 
L 274.290567 121.803021 
L 276.469457 138.545375 
L 278.648347 212.90695 
L 280.827236 210.042563 
L 283.006126 124.451694 
L 285.185015 109.972454 
L 287.363905 190.992938 
L 289.542794 144.195342 
L 291.721684 197.160004 
L 293.900574 107.917257 
L 296.079463 150.99946 
L 298.258353 132.652219 
L 300.437242 118.146515 
L 302.616132 145.658909 
L 304.795021 164.693679 
L 306.973911 136.137305 
L 309.1528 147.435236 
L 311.33169 187.840815 
L 313.51058 131.549673 
L 315.689469 138.584069 
L 317.868359 160.551319 
L 320.047248 195.035149 
L 322.226138 209.859184 
L 324.405027 158.371622 
L 326.583917 213.351591 
L 328.762807 222.496998 
L 330.941696 226.938642 
L 333.120586 225.736882 
L 335.299475 222.009881 
L 337.478365 174.427973 
L 339.657254 141.21217 
L 341.836144 140.436131 
L 344.015034 216.289759 
L 346.193923 223.605902 
L 348.372813 223.683193 
L 350.551702 216.617472 
L 352.730592 224.975164 
L 354.909481 215.166456 
L 357.088371 162.429476 
L 359.267261 160.750642 
L 361.44615 204.232569 
L 363.62504 208.504505 
L 365.803929 197.253405 
L 367.982819 171.562381 
L 370.161708 161.521022 
L 372.340598 204.092931 
L 374.519487 207.304028 
L 376.698377 207.360484 
L 378.877267 221.960114 
L 381.056156 146.142137 
L 383.235046 119.245055 
L 385.413935 131.241676 
L 387.592825 98.270335 
L 389.771714 122.514913 
L 391.950604 155.124358 
L 394.129494 195.798364 
L 396.308383 202.600907 
L 398.487273 211.978294 
L 398.487273 211.978294 
" clip-path="url(#p02408b16fd)" style="fill: none; stroke: #ff0000; stroke-width: 1.5; stroke-linecap: square"/>
   </g>
   <g id="patch_3">
    <path d="M 57.6 307.584 
L 57.6 41.472 
" style="fill: none; stroke: #000000; stroke-width: 0.8; stroke-linejoin: miter; stroke-linecap: square"/>
   </g>
   <g id="patch_4">
    <path d="M 414.72 307.584 
L 414.72 41.472 
" style="fill: none; stroke: #000000; stroke-width: 0.8; stroke-linejoin: miter; stroke-linecap: square"/>
   </g>
   <g id="patch_5">
    <path d="M 57.6 307.584 
L 414.72 307.584 
" style="fill: none; stroke: #000000; stroke-width: 0.8; stroke-linejoin: miter; stroke-linecap: square"/>
   </g>
   <g id="patch_6">
    <path d="M 57.6 41.472 
L 414.72 41.472 
" style="fill: none; stroke: #000000; stroke-width: 0.8; stroke-linejoin: miter; stroke-linecap: square"/>
   </g>
   <g id="legend_1">
    <g id="patch_7">
     <path d="M 64.6 78.82825 
L 138.646875 78.82825 
Q 140.646875 78.82825 140.646875 76.82825 
L 140.646875 48.472 
Q 140.646875 46.472 138.646875 46.472 
L 64.6 46.472 
Q 62.6 46.472 62.6 48.472 
L 62.6 76.82825 
Q 62.6 78.82825 64.6 78.82825 
z
" style="fill: #ffffff; opacity: 0.8; stroke: #cccccc; stroke-linejoin: miter"/>
    </g>
    <g id="line2d_13">
     <path d="M 66.6 54.570437 
L 76.6 54.570437 
L 86.6 54.570437 
" style="fill: none; stroke: #0000ff; stroke-width: 1.5; stroke-linecap: square"/>
    </g>
    <g id="text_11">
     <!-- Real -->
     <g transform="translate(94.6 58.070437) scale(0.1 -0.1)">
      <defs>
       <path id="DejaVuSans-52" d="M 2841 2188 
Q 3044 2119 3236 1894 
Q 3428 1669 3622 1275 
L 4263 0 
L 3584 0 
L 2988 1197 
Q 2756 1666 2539 1819 
Q 2322 1972 1947 1972 
L 1259 1972 
L 1259 0 
L 628 0 
L 628 4666 
L 2053 4666 
Q 2853 4666 3247 4331 
Q 3641 3997 3641 3322 
Q 3641 2881 3436 2590 
Q 3231 2300 2841 2188 
z
M 1259 4147 
L 1259 2491 
L 2053 2491 
Q 2509 2491 2742 2702 
Q 2975 2913 2975 3322 
Q 2975 3731 2742 3939 
Q 2509 4147 2053 4147 
L 1259 4147 
z
" transform="scale(0.015625)"/>
       <path id="DejaVuSans-65" d="M 3597 1894 
L 3597 1613 
L 953 1613 
Q 991 1019 1311 708 
Q 1631 397 2203 397 
Q 2534 397 2845 478 
Q 3156 559 3463 722 
L 3463 178 
Q 3153 47 2828 -22 
Q 2503 -91 2169 -91 
Q 1331 -91 842 396 
Q 353 884 353 1716 
Q 353 2575 817 3079 
Q 1281 3584 2069 3584 
Q 2775 3584 3186 3129 
Q 3597 2675 3597 1894 
z
M 3022 2063 
Q 3016 2534 2758 2815 
Q 2500 3097 2075 3097 
Q 1594 3097 1305 2825 
Q 1016 2553 972 2059 
L 3022 2063 
z
" transform="scale(0.015625)"/>
       <path id="DejaVuSans-61" d="M 2194 1759 
Q 1497 1759 1228 1600 
Q 959 1441 959 1056 
Q 959 750 1161 570 
Q 1363 391 1709 391 
Q 2188 391 2477 730 
Q 2766 1069 2766 1631 
L 2766 1759 
L 2194 1759 
z
M 3341 1997 
L 3341 0 
L 2766 0 
L 2766 531 
Q 2569 213 2275 61 
Q 1981 -91 1556 -91 
Q 1019 -91 701 211 
Q 384 513 384 1019 
Q 384 1609 779 1909 
Q 1175 2209 1959 2209 
L 2766 2209 
L 2766 2266 
Q 2766 2663 2505 2880 
Q 2244 3097 1772 3097 
Q 1472 3097 1187 3025 
Q 903 2953 641 2809 
L 641 3341 
Q 956 3463 1253 3523 
Q 1550 3584 1831 3584 
Q 2591 3584 2966 3190 
Q 3341 2797 3341 1997 
z
" transform="scale(0.015625)"/>
       <path id="DejaVuSans-6c" d="M 603 4863 
L 1178 4863 
L 1178 0 
L 603 0 
L 603 4863 
z
" transform="scale(0.015625)"/>
      </defs>
      <use xlink:href="#DejaVuSans-52"/>
      <use xlink:href="#DejaVuSans-65" x="64.982422"/>
      <use xlink:href="#DejaVuSans-61" x="126.505859"/>
      <use xlink:href="#DejaVuSans-6c" x="187.785156"/>
     </g>
    </g>
    <g id="line2d_14">
     <path d="M 66.6 69.248562 
L 76.6 69.248562 
L 86.6 69.248562 
" style="fill: none; stroke: #ff0000; stroke-width: 1.5; stroke-linecap: square"/>
    </g>
    <g id="text_12">
     <!-- Previsão -->
     <g transform="translate(94.6 72.748562) scale(0.1 -0.1)">
      <defs>
       <path id="DejaVuSans-50" d="M 1259 4147 
L 1259 2394 
L 2053 2394 
Q 2494 2394 2734 2622 
Q 2975 2850 2975 3272 
Q 2975 3691 2734 3919 
Q 2494 4147 2053 4147 
L 1259 4147 
z
M 628 4666 
L 2053 4666 
Q 2838 4666 3239 4311 
Q 3641 3956 3641 3272 
Q 3641 2581 3239 2228 
Q 2838 1875 2053 1875 
L 1259 1875 
L 1259 0 
L 628 0 
L 628 4666 
z
" transform="scale(0.015625)"/>
       <path id="DejaVuSans-72" d="M 2631 2963 
Q 2534 3019 2420 3045 
Q 2306 3072 2169 3072 
Q 1681 3072 1420 2755 
Q 1159 2438 1159 1844 
L 1159 0 
L 581 0 
L 581 3500 
L 1159 3500 
L 1159 2956 
Q 1341 3275 1631 3429 
Q 1922 3584 2338 3584 
Q 2397 3584 2469 3576 
Q 2541 3569 2628 3553 
L 2631 2963 
z
" transform="scale(0.015625)"/>
       <path id="DejaVuSans-76" d="M 191 3500 
L 800 3500 
L 1894 563 
L 2988 3500 
L 3597 3500 
L 2284 0 
L 1503 0 
L 191 3500 
z
" transform="scale(0.015625)"/>
       <path id="DejaVuSans-69" d="M 603 3500 
L 1178 3500 
L 1178 0 
L 603 0 
L 603 3500 
z
M 603 4863 
L 1178 4863 
L 1178 4134 
L 603 4134 
L 603 4863 
z
" transform="scale(0.015625)"/>
       <path id="DejaVuSans-73" d="M 2834 3397 
L 2834 2853 
Q 2591 2978 2328 3040 
Q 2066 3103 1784 3103 
Q 1356 3103 1142 2972 
Q 928 2841 928 2578 
Q 928 2378 1081 2264 
Q 1234 2150 1697 2047 
L 1894 2003 
Q 2506 1872 2764 1633 
Q 3022 1394 3022 966 
Q 3022 478 2636 193 
Q 2250 -91 1575 -91 
Q 1294 -91 989 -36 
Q 684 19 347 128 
L 347 722 
Q 666 556 975 473 
Q 1284 391 1588 391 
Q 1994 391 2212 530 
Q 2431 669 2431 922 
Q 2431 1156 2273 1281 
Q 2116 1406 1581 1522 
L 1381 1569 
Q 847 1681 609 1914 
Q 372 2147 372 2553 
Q 372 3047 722 3315 
Q 1072 3584 1716 3584 
Q 2034 3584 2315 3537 
Q 2597 3491 2834 3397 
z
" transform="scale(0.015625)"/>
       <path id="DejaVuSans-e3" d="M 2194 1759 
Q 1497 1759 1228 1600 
Q 959 1441 959 1056 
Q 959 750 1161 570 
Q 1363 391 1709 391 
Q 2188 391 2477 730 
Q 2766 1069 2766 1631 
L 2766 1759 
L 2194 1759 
z
M 3341 1997 
L 3341 0 
L 2766 0 
L 2766 531 
Q 2569 213 2275 61 
Q 1981 -91 1556 -91 
Q 1019 -91 701 211 
Q 384 513 384 1019 
Q 384 1609 779 1909 
Q 1175 2209 1959 2209 
L 2766 2209 
L 2766 2266 
Q 2766 2663 2505 2880 
Q 2244 3097 1772 3097 
Q 1472 3097 1187 3025 
Q 903 2953 641 2809 
L 641 3341 
Q 956 3463 1253 3523 
Q 1550 3584 1831 3584 
Q 2591 3584 2966 3190 
Q 3341 2797 3341 1997 
z
M 1844 4281 
L 1665 4453 
Q 1597 4516 1545 4545 
Q 1494 4575 1453 4575 
Q 1334 4575 1278 4461 
Q 1222 4347 1215 4091 
L 825 4091 
Q 831 4513 990 4742 
Q 1150 4972 1434 4972 
Q 1553 4972 1653 4928 
Q 1753 4884 1869 4781 
L 2047 4609 
Q 2115 4547 2167 4517 
Q 2219 4488 2259 4488 
Q 2378 4488 2434 4602 
Q 2490 4716 2497 4972 
L 2887 4972 
Q 2881 4550 2721 4320 
Q 2562 4091 2278 4091 
Q 2159 4091 2059 4134 
Q 1959 4178 1844 4281 
z
" transform="scale(0.015625)"/>
       <path id="DejaVuSans-6f" d="M 1959 3097 
Q 1497 3097 1228 2736 
Q 959 2375 959 1747 
Q 959 1119 1226 758 
Q 1494 397 1959 397 
Q 2419 397 2687 759 
Q 2956 1122 2956 1747 
Q 2956 2369 2687 2733 
Q 2419 3097 1959 3097 
z
M 1959 3584 
Q 2709 3584 3137 3096 
Q 3566 2609 3566 1747 
Q 3566 888 3137 398 
Q 2709 -91 1959 -91 
Q 1206 -91 779 398 
Q 353 888 353 1747 
Q 353 2609 779 3096 
Q 1206 3584 1959 3584 
z
" transform="scale(0.015625)"/>
      </defs>
      <use xlink:href="#DejaVuSans-50"/>
      <use xlink:href="#DejaVuSans-72" x="58.552734"/>
      <use xlink:href="#DejaVuSans-65" x="97.416016"/>
      <use xlink:href="#DejaVuSans-76" x="158.939453"/>
      <use xlink:href="#DejaVuSans-69" x="218.119141"/>
      <use xlink:href="#DejaVuSans-73" x="245.902344"/>
      <use xlink:href="#DejaVuSans-e3" x="298.001953"/>
      <use xlink:href="#DejaVuSans-6f" x="359.28125"/>
     </g>
    </g>
   </g>
  </g>
 </g>
 <defs>
  <clipPath id="p02408b16fd">
   <rect x="57.6" y="41.472" width="357.12" height="266.112"/>
  </clipPath>
 </defs>
</svg>
